# xmcd
#
# Track frame offsets: 
#        150
#        12722
#        30327
#        45426
#        65057
#        80823
#        92072
#        107737
#        131624
#        147366
#        162144
#        178715
#        195063
#        210765
#        221832
#        235237
#        250882
#        264367
#        279903
#        295407
#
# Disc length: 4166 seconds
#
# Revision: 2
# Processed by: cddbd v1.5.2PL0 Copyright (c) Steve Scherf et al.
# Submitted via: ExactAudioCopy v0.99pb4
#
DISCID=1c104414
DTITLE=Various Artist - Willkommen im Club - Evergreens zum Geburtstag
DYEAR=1900
DGENRE=Schlager
TTITLE0=Peggy March - Mit 17 hat man noch Träume
TTITLE1=Freddy Quinn - Happy Birthday
TTITLE2=Bernd Clüver - Mit 17
TTITLE3=Willy Schneider - Man müsste noch mal 20 sein
TTITLE4=Bernhard Brink - Für mich bist Du immer noch 20
TTITLE5=Wolfgang Sauer - 25 Jahre Ehemann
TTITLE6=Howard Carpendale - Sie ist 38
TTITLE7=Stevie Wonder - Happy Birthday
TTITLE8=Gaby Baginsky - Es kann mit 40 wie mit 20 sein
TTITLE9=Irene Sheer - Frauen ab 40 sind der Hit
TTITLE10=Dorthe Kollo - Zum 8. Male 40
TTITLE11=Onkel Bruno - Herzlich Willkommen im Club der alten Säcke
TTITLE12=Curd Jürgens - 60 Jahre und kein bisschen weise
TTITLE13=Willy Millowitsch - Wenn ich auch schon bald 90 bin
TTITLE14=Johannes Heesters - Ich möchte 100 Jahre werden
TTITLE15=Frank Zander - Alles Gute zum Geburtstag
TTITLE16=Erwin Geschonneck - Wenn ich mal 100 werde
TTITLE17=Evelyn Künneke - 70 Jahre und kein bisschen weise
TTITLE18=Fred Bertelmann - Mit Dir möchte ich 100 Jahre werden
TTITLE19=Henry Valentino - Und was bleibt ist die Liebe
EXTD=
EXTT0=
EXTT1=
EXTT2=
EXTT3=
EXTT4=
EXTT5=
EXTT6=
EXTT7=
EXTT8=
EXTT9=
EXTT10=
EXTT11=
EXTT12=
EXTT13=
EXTT14=
EXTT15=
EXTT16=
EXTT17=
EXTT18=
EXTT19=
PLAYORDER=
